# xmcd
#
# Track frame offsets:
#	150
#	15705
#	30537
#	44820
#	61057
#	78732
#	92615
#	108954
#	122635
#	138265
#	151770
#
# Disc length: 2227 seconds
#
# Revision: 1
# Processed by: cddbd v1.5.1PL2 Copyright (c) Steve Scherf et al.
# Submitted via: audiograbber 1.82.02
#
DISCID=8408b10b
DTITLE=Wayne Renn - My World
DYEAR=1900
DGENRE=
TTITLE0=Hey Diddle Diddle
TTITLE1=My World Revolves Around You
TTITLE2=Let Your Hearts Lead The Way
TTITLE3=Medicine Man
TTITLE4=I Don't Need Ruby's
TTITLE5=Hatfields And McCoys
TTITLE6=Make Up Your Mind
TTITLE7=You And Me
TTITLE8=Free
TTITLE9=New Ark Junction
TTITLE10=Honky Tonkin's In My Blood
EXTD=
EXTT0=
EXTT1=
EXTT2=
EXTT3=
EXTT4=
EXTT5=
EXTT6=
EXTT7=
EXTT8=
EXTT9=
EXTT10=
PLAYORDER=
